<mxfile host="app.diagrams.net" modified="2024-03-12T17:13:17.524Z" agent="Mozilla/5.0 (Windows NT 10.0; Win64; x64) AppleWebKit/537.36 (KHTML, like Gecko) Chrome/122.0.0.0 Safari/537.36" version="24.0.1" etag="mgpr7MfxA5A5RoXrwzf9" type="github">
  <diagram name="Page-1" id="ldcMyVaZV7j3MwAUK2Bm">
    <mxGraphModel>
      <root>
        <mxCell id="0" />
        <mxCell id="1" parent="0" />
      </root>
    </mxGraphModel>
  </diagram>
</mxfile>
